<svg xmlns="http://www.w3.org/2000/svg" width="20" height="20" viewBox="0 0 20 20"><defs><style>.a{fill:none;}.b{fill:#fff;}</style></defs><path class="a" d="M0,0H20V20H0Z"/><path class="b" d="M2.887,6.592A8.33,8.33,0,0,1,10.333,2a8,8,0,0,1,5.575,2.171l-2.389,2.39a4.5,4.5,0,0,0-3.186-1.247,5.006,5.006,0,0,0-4.662,6.6,5.026,5.026,0,0,0,7.484,2.64,3.833,3.833,0,0,0,1.663-2.515H10.333V8.818h7.848a9.582,9.582,0,0,1,.152,1.7,8.122,8.122,0,0,1-2.485,6.125,7.952,7.952,0,0,1-5.515,2.019A8.334,8.334,0,0,1,2.887,6.592Z" transform="translate(-0.333 -0.333)"/></svg>