<svg xmlns="http://www.w3.org/2000/svg" width="31.618" height="42.849" viewBox="0 0 31.618 42.849"><defs><style>.a{fill:#fff;}</style></defs><g transform="translate(0 0)"><g transform="translate(0)"><path class="a" d="M68.462,5.037V5H61.068V6.757h7.026V8.513H61.068v1.756h7.026v1.756H61.068v1.756h7.026v1.756H61.068v1.756h7.026v1.756H61.068v1.757h7.026v1.756H61.068v1.756h7.026v1.756H61.068v1.756h7.026V41.888a1.757,1.757,0,0,0,3.513,0V8.513a3.5,3.5,0,0,0-3.146-3.476" transform="translate(-39.989 -5)"/><path class="a" d="M26.894,24.322a2.2,2.2,0,0,1,1.756-2.151V5H27.333L23.82,29.592v3.82a5.268,5.268,0,1,0,3.5,5.174l.01.009v-9h1.317V26.474a2.2,2.2,0,0,1-1.756-2.151M22.064,41.01A2.635,2.635,0,1,1,24.7,38.375a2.637,2.637,0,0,1-2.635,2.635" transform="translate(-16.794 -5)"/><path class="a" d="M53.427,42.483a5.263,5.263,0,0,0-5.053-9.071v-3.82L44.861,5H43.543V22.171a2.2,2.2,0,0,1,0,4.3v3.118h1.318v9l.012-.009a5.262,5.262,0,0,0,5.16,5.054c.223.65.506,1.416.554,1.523a5.257,5.257,0,0,0,1.744,2.353c1.854,1.17,4.043-1,2.191-2.627,0,0-1.2-.368-1.095-2.407m-3.3-1.474a2.635,2.635,0,1,1,2.635-2.635A2.637,2.637,0,0,1,50.13,41.01" transform="translate(-30.808 -5)"/></g></g></svg>