<svg xmlns="http://www.w3.org/2000/svg" width="20.33" height="20.33" viewBox="0 0 20.33 20.33">
  <path id="Path_5" data-name="Path 5" d="M32.079,13.841A1.13,1.13,0,0,0,31.2,12H13.129a1.129,1.129,0,0,0-1.045.706,1.062,1.062,0,0,0-.085.424,1.129,1.129,0,0,0,.257.717l.714.873L17,19.638h0l2.555,3.106a1.129,1.129,0,0,1,.35.833V31.2a1.128,1.128,0,0,0,1.782.921l.068-.051h0l2.166-1.626.062-.045a1.129,1.129,0,0,0,.44-.892v-5.93a1.129,1.129,0,0,1,.347-.816l2.558-3.123,4.744-5.791Z" transform="translate(-12 -12)" fill="#333"/>
</svg>
