<svg xmlns="http://www.w3.org/2000/svg" width="64" height="64" viewBox="0 0 64 64">
  <g id="Group_4669" data-name="Group 4669" transform="translate(-16 -260)">
    <g id="Group_4574" data-name="Group 4574" transform="translate(12 256)">
      <rect id="Rectangle_9" data-name="Rectangle 9" width="64" height="64" rx="17" transform="translate(4 4)" fill="#ed5564"/>
    </g>
    <g id="scissors-and-comb_1_" data-name="scissors-and-comb (1)" transform="translate(33 274)">
      <g id="Group_487" data-name="Group 487" transform="translate(0 0)">
        <path id="Path_353" data-name="Path 353" d="M52.031,20.17h0a5.525,5.525,0,0,0-.643-.126l-.021,0A5.239,5.239,0,0,0,50.714,20c-.148,0-.294.009-.438.022l-.13.015c-.1.013-.2.029-.3.048-.047.009-.094.019-.14.031-.1.022-.2.048-.3.079-.04.013-.079.024-.119.035a4.153,4.153,0,0,0-.39.156h0a3.84,3.84,0,0,0-.562.329h0a3.958,3.958,0,0,0-.376.3c-.028.025-.051.053-.078.079h0a3.6,3.6,0,0,0-.366.413h0a3.991,3.991,0,0,0-.437.718l-.418-.517h0c-.131-.163-.287-.355-.453-.561-.289-.358-.629-.777-1.007-1.246l-.665-.823h0l-.707-.876h0a.525.525,0,0,0-.037-.046h0c-.481-.6-.992-1.23-1.527-1.891C44.809,10.3,47.317,3.374,46.91.007c-.435.95-3.637,7.933-6.438,14.042L31.062,2.4c.426,3.28,4.38,9.16,8.232,14.223-1.116,2.433-2.074,4.526-2.634,5.745a3.779,3.779,0,0,0-.364-.384,4.022,4.022,0,0,0-2.756-1.012,6.406,6.406,0,0,0-4.608,2.2c-2.171,2.385-2.4,5.717-.5,7.445a4.028,4.028,0,0,0,2.756,1.013A6.4,6.4,0,0,0,35.8,29.425,6.975,6.975,0,0,0,37.345,26.7l.024.062s1.732-3.38,3.722-7.821c.529.668,1.042,1.308,1.533,1.913h0l.064.078.176.218.026.032h0q.374.458.725.885h0l.012.015c.458.555.884,1.066,1.268,1.522h0l.05.06c.246.292.475.562.682.805l.029.034h0c.285.336.529.619.724.846h0a.037.037,0,0,1,.007.007c.337.39.531.611.531.611l.017-.149a6.977,6.977,0,0,0,1.521,2.637h0a6.4,6.4,0,0,0,4.608,2.206,4.027,4.027,0,0,0,2.755-1.014c1.9-1.727,1.671-5.058-.5-7.445A6.759,6.759,0,0,0,52.031,20.17ZM35.122,26.052a4.651,4.651,0,0,1-1.036,1.815,4.113,4.113,0,0,1-2.9,1.448,1.726,1.726,0,0,1-1.2-.41c-.917-.835-.611-2.787.653-4.175a4.1,4.1,0,0,1,2.9-1.45,1.731,1.731,0,0,1,1.2.41,1.842,1.842,0,0,1,.139.15l.657.793Zm5.788-8.814a.579.579,0,1,1,.578-.578A.578.578,0,0,1,40.911,17.238ZM54.262,27.931a1.712,1.712,0,0,1-1.2.41,4.112,4.112,0,0,1-2.9-1.448,4.962,4.962,0,0,1-.649-.9c.509-1.179,1.042-2.416,1.577-3.655a4.3,4.3,0,0,1,2.513,1.421C54.875,25.147,55.18,27.1,54.262,27.931Z" transform="translate(-27.146 -0.006)" fill="#fff"/>
        <path id="Path_354" data-name="Path 354" d="M215.131,0c-.218-.034-.268.158-.106.253a14.71,14.71,0,0,1,2.9,2.107L214.714.977l-.207.48,4.122,1.779a3.157,3.157,0,0,1,.32.708L214.3,1.939l-.207.482,4.966,2.143a2.769,2.769,0,0,1-.022.562L213.884,2.9l-.207.481,5.245,2.263a3.885,3.885,0,0,1-.145.39l-5.265-2.272-.207.481,5.268,2.274c-.056.131-.118.277-.193.448l-5.268-2.273-.208.481,5.269,2.274c-.066.15-.134.311-.208.481L212.7,5.658l-.206.479,5.268,2.274c-.068.155-.137.314-.208.481l-5.268-2.274-.208.481,5.268,2.274c-.008.02-.017.038-.025.058,0,0-.06.141-.166.389L211.88,7.549l-.208.482,5.268,2.273c-.063.146-.13.3-.207.482l-5.269-2.274-.208.482,5.269,2.274-.151.349-5.268-2.274-.208.481,5.268,2.273c-.064.145-.127.293-.193.448L210.7,10.271l-.209.482,5.269,2.274c-.067.156-.138.318-.207.482l-5.268-2.274-.209.48,5.268,2.274q-.1.237-.207.481L209.873,12.2l-.207.48,5.268,2.274c-.064.148-.129.3-.193.448l-5.269-2.273-.208.481,5.268,2.274-.207.481-5.269-2.273-.208.48,5.268,2.274-.171.4-5.269-2.274-.207.481,5.269,2.274q-.1.223-.194.448L208.275,15.9l-.207.482,5.268,2.274c-.056.127-.11.253-.165.381L207.9,16.759l-.206.482,5.092,2.2a5.2,5.2,0,0,1,1.443-.2,6.078,6.078,0,0,1,1.616.237l3.883-9c.657-1.521,1.164-2.7,1.406-3.255C222.25,4.635,219.275.636,215.131,0Z" transform="translate(-190.664 -0.001)" fill="#fff"/>
        <path id="Path_355" data-name="Path 355" d="M228.338,209.975a4.381,4.381,0,0,1,.3-.322c.032-.027.065-.051.1-.078l-1.527-.659.708.876Z" transform="translate(-208.336 -189.208)" fill="#fff"/>
        <path id="Path_356" data-name="Path 356" d="M138.542,259.061l-5.208-2.246-.208.482,5.268,2.274c-.069.164-.14.324-.207.482l-5.269-2.274-.208.48,5.267,2.275c-.065.151-.129.3-.193.448l-5.268-2.274-.208.48,5.268,2.275c-.072.164-.14.325-.208.481l-5.267-2.274-.209.481,5.268,2.273c-.058.139-.117.27-.172.4l-5.268-2.275-.208.48,5.268,2.275c-.068.157-.133.307-.193.448l-5.269-2.275-.208.481,5.267,2.275-.207.48-5.268-2.273-.209.48,5.265,2.274a4.07,4.07,0,0,1-.234.469l-5.24-2.26-.209.48,5.143,2.219a2.706,2.706,0,0,1-.368.372l-4.967-2.143-.209.48,4.65,2.007a3.13,3.13,0,0,1-.734.255l-4.123-1.78-.208.48,3.215,1.388a14.965,14.965,0,0,1-3.623-.7c-.17-.051-.184.143-.01.28,3.3,2.579,8.25,2,9.365-.584.278-.643.981-2.276,1.894-4.389-.078-.079-.161-.152-.236-.236A7.966,7.966,0,0,1,138.542,259.061Z" transform="translate(-119.317 -232.588)" fill="#fff"/>
        <path id="Path_357" data-name="Path 357" d="M216.186,192.049l-4.005-1.729.25.309.458.567,2.719,1.173A4.554,4.554,0,0,1,216.186,192.049Z" transform="translate(-194.725 -172.366)" fill="#fff"/>
        <path id="Path_358" data-name="Path 358" d="M177.932,247.1l4.214,1.82q-.329-.383-.772-.9l-3.235-1.4Z" transform="translate(-163.707 -223.356)" fill="#fff"/>
        <path id="Path_359" data-name="Path 359" d="M185.983,229.565l.7.3q-.268-.324-.548-.668Z" transform="translate(-170.999 -207.577)" fill="#fff"/>
        <path id="Path_360" data-name="Path 360" d="M182.188,237.247l2.335,1.008c-.234-.278-.484-.578-.742-.89l-1.386-.6Z" transform="translate(-167.562 -214.43)" fill="#fff"/>
      </g>
    </g>
  </g>
</svg>
