<svg xmlns="http://www.w3.org/2000/svg" width="64" height="64" viewBox="0 0 64 64">
  <g id="Group_4670" data-name="Group 4670" transform="translate(-92 -260)">
    <rect id="Rectangle_3817" data-name="Rectangle 3817" width="64" height="64" rx="17" transform="translate(92 260)" fill="#ed5f55"/>
    <g id="_013---Hair-Dye" data-name="013---Hair-Dye" transform="translate(103.973 271.988)">
      <path id="Shape" d="M32.114,5.79a.659.659,0,1,0-.932.932l2.926,2.926a1.3,1.3,0,0,0,.336,1.269c1.161,1.161,2.031,2.2,4.025,2.439A6.568,6.568,0,0,1,42.4,15.143l3.23,3.23a2.637,2.637,0,0,0,3.649-3.807l-3.151-3.151A6.57,6.57,0,0,1,44.34,7.483C44.095,5.44,42.951,4.509,41.9,3.458a1.318,1.318,0,0,0-1.268-.335L37.708.2a.659.659,0,0,0-.932.932l2.8,2.8-.933.932-2.8-2.8a.659.659,0,0,0-.932.932l2.8,2.8-.932.932-2.8-2.8a.659.659,0,0,0-.932.932l2.8,2.8-.933.933ZM43.031,7.641A7.872,7.872,0,0,0,45.2,12.347L48.346,15.5a1.4,1.4,0,0,1,.146,1.871,1.36,1.36,0,0,1-1.931.072l-3.23-3.23a7.871,7.871,0,0,0-4.706-2.165c-1.554-.185-2.241-1.055-3.25-2.062L40.97,4.393c1.043,1.041,1.876,1.7,2.062,3.248Z" transform="translate(-10.552 0)" fill="#fff"/>
      <path id="Shape-2" data-name="Shape" d="M29.807,28.417c-.8-2.312.227-5.429.507-10.554A.66.66,0,1,0,29,17.79c-.272,5-1.274,8.063-.541,10.721-2.712.248-6.036.925-6.036,2.51a1.544,1.544,0,0,0,.9,1.252l.322,1.611c-.784.11-1.638.2-2.552.264V29.59a12.372,12.372,0,0,0,2.921-5.221c1.055-.279,3.026-1.246,3.026-4.578,0-1.542-.356-2.471-1.089-2.841a1.59,1.59,0,0,0-1.169-.084c0-.42-.014-.836-.044-1.23a.659.659,0,0,0-.189-.415C22,12.657,20.9,12.567,16.157,12.567c-3.156,0-4.34-1.8-4.765-2.879a.659.659,0,0,0-1.015-.279c-1.882,1.45-2.808,3.889-2.834,7.457a1.592,1.592,0,0,0-1.169.084c-.736.37-1.092,1.3-1.092,2.841,0,3.322,1.958,4.293,3.015,4.574a12.239,12.239,0,0,0,2.942,5.253v4.531c-6.747-.49-8.465-1.977-9.366-2.995,4.35-2.08.768-10.468,1.4-17.092.648-6.725,6.29-7.034,8.007-6.973a.711.711,0,0,0,.411-.078,16.12,16.12,0,0,1,8.935-1.6A.659.659,0,0,0,20.77,4.1a17.6,17.6,0,0,0-9.548,1.672c-4.081-.1-8.661,1.967-9.26,8.167C1.3,20.855,4.892,29.207.651,30.184A.666.666,0,0,0,.326,31.4C1.4,32.393,2.2,34.842,11.31,35.478a1.985,1.985,0,0,0,1.917,1.479h5.892a1.945,1.945,0,0,0,1.9-1.48c1.035-.072,2-.171,2.881-.3.6,3,.5,2.175.5,3.751a1.977,1.977,0,0,0,1.977,1.977H35.6a1.977,1.977,0,0,0,1.977-1.977c0-1.671-.176-.374,1.081-6.657a1.544,1.544,0,0,0,.9-1.252c0-2.38-7.328-2.719-9.748-2.6ZM25.348,18.126c.015.007.366.2.366,1.665,0,1.763-.659,2.614-1.35,3.023a27.681,27.681,0,0,0,.4-4.522c.3-.173.508-.2.581-.166ZM6.6,19.791c0-1.464.351-1.658.366-1.665.072-.036.277-.007.58.167a28.073,28.073,0,0,0,.4,4.517C7.253,22.4,6.6,21.549,6.6,19.791Zm3.67,6.1c-1.181-2.522-1.418-5.261-1.418-8.862,0-2.777.565-4.76,1.725-6.026a6.063,6.063,0,0,0,5.579,2.879c4.561,0,5.241.069,7.274,2.09.02.341.03.7.03,1.055,0,3.593-.24,6.327-1.435,8.861-1.384,2.947-3.357,4.441-5.87,4.441-2.532,0-4.512-1.491-5.886-4.438Zm8.848,9.745H13.227a.659.659,0,0,1-.663-.743c0-.034-.007.471-.007-4.241a6.946,6.946,0,0,0,7.21-.016v4.337a.649.649,0,0,1-.648.663ZM30.986,29.7c4.014,0,6.743.833,7.211,1.318-.468.485-3.2,1.318-7.211,1.318s-6.743-.833-7.211-1.318C24.243,30.537,26.972,29.7,30.986,29.7Zm5.273,9.227a.659.659,0,0,1-.659.659H26.373a.659.659,0,0,1-.659-.659v-.659H32.3a.659.659,0,0,0,0-1.318H25.6c-.428-2.142.681,3.408-.813-4.065a25.75,25.75,0,0,0,12.409,0c-1.111,5.555-.932,4.2-.932,6.042Z" transform="translate(0 -1.359)" fill="#fff"/>
    </g>
  </g>
</svg>
