<svg xmlns="http://www.w3.org/2000/svg" width="64" height="64" viewBox="0 0 64 64">
  <g id="Group_4671" data-name="Group 4671" transform="translate(-168 -260)">
    <path id="Path_2910" data-name="Path 2910" d="M17,0H47A17,17,0,0,1,64,17V47A17,17,0,0,1,47,64H17A17,17,0,0,1,0,47V17A17,17,0,0,1,17,0Z" transform="translate(168 260)" fill="#f57c4f"/>
    <g id="cosmetics" transform="translate(173.293 273.111)">
      <path id="Path_3077" data-name="Path 3077" d="M18.957,45.688h-.418V42.3a.728.728,0,0,0-.728-.728h-.062V34.632a.728.728,0,0,0-.4-.651l-5.632-2.817a.728.728,0,0,0-1.053.651v9.755H10.6a.728.728,0,0,0-.728.728v3.391H9.452a.728.728,0,0,0-.728.728v19.1a.728.728,0,0,0,.728.728h9.5a.728.728,0,0,0,.728-.728v-19.1A.727.727,0,0,0,18.957,45.688Zm-6.84-12.7,4.176,2.089v6.488H12.117Zm-.79,10.032h5.757v2.663H11.326Zm6.9,21.766H10.18V47.144h8.049Z" transform="translate(0 -28.071)" fill="#fff"/>
      <path id="Path_3078" data-name="Path 3078" d="M150.466,304.276H126.829a.728.728,0,1,0,0,1.456h22.48l-.166.346a5.551,5.551,0,0,1-4.975,3.127H126.829a.728.728,0,1,0,0,1.456h17.338a7.014,7.014,0,0,0,6.287-3.951l.669-1.389a.728.728,0,0,0-.656-1.043Z" transform="translate(-105.987 -274.751)" fill="#fff"/>
      <path id="Path_3079" data-name="Path 3079" d="M104.911,5.351a14.645,14.645,0,1,1,19.328,21.994.728.728,0,1,0,.933,1.117,16.1,16.1,0,1,0-21.25-24.179.728.728,0,1,0,.989,1.068Z" transform="translate(-85.75)" fill="#fff"/>
      <path id="Path_3080" data-name="Path 3080" d="M119.432,32.65A11.617,11.617,0,1,1,111.654,52.9a.728.728,0,1,0-.975,1.081A13.072,13.072,0,1,0,108.9,36.526a.728.728,0,1,0,1.172.863A11.67,11.67,0,0,1,119.432,32.65Z" transform="translate(-90.325 -28.167)" fill="#fff"/>
      <path id="Path_3081" data-name="Path 3081" d="M175.726,104.85l-13.281,13.281a.728.728,0,0,0,1.029,1.029l13.281-13.281a.728.728,0,0,0-1.029-1.029Z" transform="translate(-138.613 -94.484)" fill="#fff"/>
      <path id="Path_3082" data-name="Path 3082" d="M204.123,149.856a.728.728,0,0,0,1.029,1.029l9.971-9.971a.728.728,0,1,0-1.029-1.029Z" transform="translate(-176.247 -126.118)" fill="#fff"/>
    </g>
  </g>
</svg>
