<svg xmlns="http://www.w3.org/2000/svg" width="64" height="64" viewBox="0 0 64 64">
  <g id="Group_4672" data-name="Group 4672" transform="translate(-244 -260)">
    <path id="Path_3029" data-name="Path 3029" d="M17,0H47A17,17,0,0,1,64,17V47A17,17,0,0,1,47,64H17A17,17,0,0,1,0,47V17A17,17,0,0,1,17,0Z" transform="translate(244 260)" fill="#8bc34a"/>
    <g id="hair-dryer" transform="translate(258 275)">
      <path id="Path_3083" data-name="Path 3083" d="M7.815.453a.575.575,0,0,1,.075,0l19.119,2.39L34.1.484a.593.593,0,0,1,.481.043.6.6,0,0,1,.294.382,42.582,42.582,0,0,1,1.22,7.366,42.358,42.358,0,0,1-1.221,7.366.6.6,0,0,1-.584.456.589.589,0,0,1-.19-.031L27.009,13.7,15.637,15.123V29.935a4.212,4.212,0,1,1-8.424,0V16.066A7.818,7.818,0,0,1,7.815.453ZM34.891,8.275a37.022,37.022,0,0,0-1.034-6.442L27.671,3.895v8.759l6.186,2.062a37.031,37.031,0,0,0,1.034-6.442ZM26.467,3.992,10.823,2.037V14.512l3.185-.4,12.459-1.558ZM14.433,22.715h-1.2v1.2h1.2Zm-1.2-1.2h1.2v-1.2h-1.2ZM8.417,29.935a3.008,3.008,0,1,0,6.017,0V25.122H12.628a.6.6,0,0,1-.6-.6V19.707a.6.6,0,0,1,.6-.6h1.805V15.274l-6.017.752ZM7.778,14.893l1.842-.231V1.886l-1.842-.23a6.619,6.619,0,0,0,0,13.237Zm0,0" transform="translate(0 -0.452)" fill="#fff"/>
      <path id="Path_3084" data-name="Path 3084" d="M432,97.067a.6.6,0,1,0,.6-.6A.6.6,0,0,0,432,97.067Zm0,0" transform="translate(-429.6 -89.244)" fill="#fff"/>
      <path id="Path_3085" data-name="Path 3085" d="M424,65.066a.6.6,0,1,0,.6-.6A.6.6,0,0,0,424,65.066Zm0,0" transform="translate(-420.999 -59.65)" fill="#fff"/>
      <path id="Path_3086" data-name="Path 3086" d="M424,129.067a.6.6,0,1,0,.6-.6A.6.6,0,0,0,424,129.067Zm0,0" transform="translate(-420.999 -118.837)" fill="#fff"/>
    </g>
  </g>
</svg>
