<svg xmlns="http://www.w3.org/2000/svg" width="64" height="64" viewBox="0 0 64 64">
  <g id="Group_4673" data-name="Group 4673" transform="translate(-320 -260)">
    <rect id="Rectangle_3818" data-name="Rectangle 3818" width="64" height="64" rx="17" transform="translate(320 260)" fill="#c047d4"/>
    <g id="relax" transform="translate(341.134 271.331)">
      <path id="Path_3087" data-name="Path 3087" d="M156.947,278.926a.6.6,0,0,0-.815.217.7.7,0,0,1-1.206,0,.6.6,0,1,0-1.033.6,1.89,1.89,0,0,0,3.272,0A.6.6,0,0,0,156.947,278.926Zm0,0" transform="translate(-141.585 -256.677)" fill="#fff"/>
      <path id="Path_3088" data-name="Path 3088" d="M68.017,278.926a.6.6,0,0,0-.816.217.7.7,0,0,1-1.206,0,.6.6,0,1,0-1.033.6,1.89,1.89,0,0,0,3.271,0A.6.6,0,0,0,68.017,278.926Zm0,0" transform="translate(-59.724 -256.677)" fill="#fff"/>
      <path id="Path_3089" data-name="Path 3089" d="M21.042,15.421a8.614,8.614,0,0,0-3.343-5.4,17.123,17.123,0,0,0-2.652-1.7,4.8,4.8,0,0,0,.73-4.586A5.742,5.742,0,0,0,10.456,0h-.028A5.794,5.794,0,0,0,5.059,3.773a4.825,4.825,0,0,0-.193,2.563,6.87,6.87,0,0,0-.754.311c-.239.116-.48.236-.716.358a1.317,1.317,0,0,0,.361,2.464q.661.125,1.284.276A13.188,13.188,0,0,0,3.3,11.1a.6.6,0,0,0,.812.875,12.31,12.31,0,0,1,2.6-1.834,14.241,14.241,0,0,1,4.158-1.428,11.907,11.907,0,0,1,1.775-.21,17.16,17.16,0,0,1,2.4,1.188,34.287,34.287,0,0,0-4.116,1.529c-5.709,2.564-8.4,5.831-9.458,7.462a4.961,4.961,0,0,1,.888-4.721.6.6,0,0,0-.981-.681C-.229,15.593-.432,17.91.779,20c0,.016,0,.031,0,.047,0,.043,0,.086,0,.129.02.388.06.774.107,1.16.05.408.106.811.156,1.215a15.05,15.05,0,0,1,.126,1.584A9.885,9.885,0,0,0,7.4,32.713v.58a.56.56,0,0,1-.341.516L2.672,35.68A3.031,3.031,0,0,0,.826,38.472v1.634a.6.6,0,0,0,.6.6H19.447a.6.6,0,0,0,.6-.6V38.472A3.031,3.031,0,0,0,18.2,35.68l-.846-.36a.6.6,0,0,0-.468,1.1l.846.36a1.839,1.839,0,0,1,1.12,1.694V39.51H2.02V38.472a1.839,1.839,0,0,1,1.12-1.694l4.39-1.871A1.752,1.752,0,0,0,8.6,33.293v-.17a9.511,9.511,0,0,0,1.8.311l.044,0,.044,0a9.494,9.494,0,0,0,1.791-.31v.168a1.752,1.752,0,0,0,1.067,1.614l.975.415a.6.6,0,0,0,.468-1.1l-.975-.416a.56.56,0,0,1-.341-.516v-.577a9.886,9.886,0,0,0,6.236-8.58,18.959,18.959,0,0,1,.2-2.15c.033-.253.066-.511.1-.773a.089.089,0,0,0,0-.01c.011-.1.021-.191.031-.282a.042.042,0,0,1,0-.006c.013-.126.025-.247.035-.364,0-.058.008-.116.012-.174,0-.026,0-.052.005-.078,0-.07.008-.141.011-.211,0-.011,0-.021,0-.032a7.033,7.033,0,0,0,.946-4.635ZM6.519,8.9c-.8-.231-1.646-.435-2.54-.6a.114.114,0,0,1-.1-.1.11.11,0,0,1,.065-.126c.227-.117.459-.233.689-.344a5.6,5.6,0,0,1,3.43-.46c.632.116,1.288.247,1.955.409a15.372,15.372,0,0,0-3.5,1.23Zm7.439-1.124c-.159-.074-.319-.146-.482-.216h.009c-.476-.2-.925-.37-1.325-.509a26.07,26.07,0,0,0-3.882-.963,6.762,6.762,0,0,0-2.252-.035,3.647,3.647,0,0,1,.16-1.885,4.594,4.594,0,0,1,4.256-2.972A4.543,4.543,0,0,1,14.65,4.131a3.672,3.672,0,0,1-.693,3.644Zm4.76,14.057a20.131,20.131,0,0,0-.208,2.285,7.961,7.961,0,0,1-2.523,5.514,9.148,9.148,0,0,1-5.548,2.611,9.149,9.149,0,0,1-5.548-2.611,7.959,7.959,0,0,1-2.523-5.514c-.007-.408-.037-.808-.077-1.2a28.921,28.921,0,0,0,10.262-5.182c.1-.088.206-.179.3-.27a.769.769,0,0,1,1.064.029,32.621,32.621,0,0,0,2.947,2.557l.186.149a21.1,21.1,0,0,0,1.717,1.238q-.025.2-.051.4Zm-.92-2.565-.187-.149a31.744,31.744,0,0,1-2.841-2.462,1.971,1.971,0,0,0-2.727-.067c-.085.079-.175.158-.265.235A27.525,27.525,0,0,1,2.143,21.71c-.013-.1-.026-.2-.039-.3-.041-.325-.078-.641-.105-.963-.007-.087-.013-.175-.018-.262l0-.006a11.438,11.438,0,0,1,1.939-2.688,22.79,22.79,0,0,1,7.492-5.183l.052-.023a20,20,0,0,1,4.3,3.356,15.985,15.985,0,0,1,3.105,4.427c-.366-.255-.727-.524-1.078-.805Zm1.687-.646a18.418,18.418,0,0,0-2.81-3.759,20.979,20.979,0,0,0-3.846-3.141,35.345,35.345,0,0,1,3.587-1.179A7.865,7.865,0,0,1,19.862,15.6,5.754,5.754,0,0,1,19.484,18.62Zm0,0" transform="translate(0)" fill="#fff"/>
    </g>
  </g>
</svg>
