<svg xmlns="http://www.w3.org/2000/svg" width="24" height="24" viewBox="0 0 24 24"><defs><style>.a{fill:none;}.b{fill:#278bed;}</style></defs><g transform="translate(-11 -11)"><rect class="a" width="24" height="24" transform="translate(11 11)"/><path class="b" d="M11,22A11,11,0,0,1,3.222,3.222,11,11,0,1,1,18.778,18.778,10.928,10.928,0,0,1,11,22ZM11,1A10,10,0,1,0,21,11,10.011,10.011,0,0,0,11,1Zm2,16H9v-.5h1V9H9V8.5h3v8h1V17ZM10.875,7.25A1.375,1.375,0,1,1,12.25,5.875,1.376,1.376,0,0,1,10.875,7.25Z" transform="translate(12 12)"/></g></svg>