<svg xmlns="http://www.w3.org/2000/svg" width="12.136" height="11.593" viewBox="0 0 12.136 11.593"><defs><style>.a{fill:#fe9654;fill-rule:evenodd;}</style></defs><g transform="translate(-76.791 -51)"><g transform="translate(76.791 51)"><g transform="translate(0 0)"><path class="a" d="M9.068,5a.519.519,0,0,0-.492.354L7.356,9l-3.842.034a.519.519,0,0,0-.3.936L6.3,12.253,5.144,15.918a.519.519,0,0,0,.8.578l3.128-2.23L12.2,16.5a.519.519,0,0,0,.8-.578l-1.154-3.665,3.088-2.286a.519.519,0,0,0-.3-.936L10.78,9,9.56,5.354A.519.519,0,0,0,9.068,5" transform="translate(-3 -5)"/></g></g></g></svg>