<svg xmlns="http://www.w3.org/2000/svg" width="29.251" height="22.105" viewBox="0 0 29.251 22.105"><defs><style>.a{fill:#fff;}</style></defs><g transform="translate(-10 -18)"><g transform="translate(10 19)"><path class="a" d="M33.81,26.3H51.19a1.655,1.655,0,1,0,0-3.3H33.81a1.655,1.655,0,1,0,0,3.3Z" transform="translate(-23.749 -22.682)"/><circle class="a" cx="2.637" cy="2.637" r="2.637" transform="translate(0 7.581)"/><circle class="a" cx="2.637" cy="2.637" r="2.637" transform="translate(0 -1)"/><path class="a" d="M51.19,45H33.81a1.655,1.655,0,1,0,0,3.3H51.19a1.655,1.655,0,1,0,0-3.3Z" transform="translate(-23.749 -36.43)"/><circle class="a" cx="2.637" cy="2.637" r="2.637" transform="translate(0 15.832)"/><path class="a" d="M51.19,67H33.81a1.655,1.655,0,1,0,0,3.3H51.19a1.655,1.655,0,1,0,0-3.3Z" transform="translate(-23.749 -50.179)"/></g></g></svg>