<svg xmlns="http://www.w3.org/2000/svg" width="17" height="24.438" viewBox="0 0 17 24.438"><defs><style>.a{fill:#fff;}</style></defs><g transform="translate(-18 -4)"><g transform="translate(18 4)"><path class="a" d="M20.656,956.362A2.537,2.537,0,0,0,18,958.753v20.719a1.232,1.232,0,0,0,1.328,1.328.8.8,0,0,0,.44-.141l6.732-4.491,6.732,4.491a.8.8,0,0,0,.44.141A1.232,1.232,0,0,0,35,979.472V958.753a2.537,2.537,0,0,0-2.656-2.391Zm0,1.594H32.344c.715,0,1.063.408,1.063.8v20.113l-6.466-4.308a.8.8,0,0,0-.88,0l-6.466,4.308V958.753C19.594,958.364,19.942,957.956,20.656,957.956Zm5.844,2.656a.8.8,0,0,0-.8.8v2.922H22.781a.8.8,0,0,0,0,1.594H25.7v2.922a.8.8,0,0,0,1.594,0v-2.922h2.922a.8.8,0,0,0,0-1.594H27.3v-2.922A.8.8,0,0,0,26.5,960.612Z" transform="translate(-18 -956.362)"/></g></g></svg>